REM DIRINDEX 1\5,1\2\6,1\2\7,1\3\8,1\3\9,1\4\10,1\4\11,1\4\12
REM DIRNAME cjc026,folder01,folder02,folder03,folder04,folder05,folder06,folder07,folder08,folder09,folder10,folder11
TITLE ""
FILE "EJE_DB3000_5th_2A_53.mp3" MP3
  TRACK 01 AUDIO
    TITLE "0:"
    INDEX 01 00:00:00
  TRACK 02 AUDIO
    TITLE "10:cjc026_08292"
    INDEX 01 00:00:08
  TRACK 03 AUDIO
    TITLE "0:"
    INDEX 01 00:01:41
  TRACK 04 AUDIO
    TITLE "11:cjc026_08293"
    INDEX 01 00:02:01
  TRACK 05 AUDIO
    TITLE "0:"
    INDEX 01 00:03:31
  TRACK 06 AUDIO
    TITLE "12:cjc026_08294"
    INDEX 01 00:03:66
  TRACK 07 AUDIO
    TITLE "0:"
    INDEX 01 00:05:24
  TRACK 08 AUDIO
    TITLE "10:cjc026_08295"
    INDEX 01 00:05:59
  TRACK 09 AUDIO
    TITLE "0:"
    INDEX 01 00:08:26
  TRACK 10 AUDIO
    TITLE "11:cjc026_08296"
    INDEX 01 00:08:61
  TRACK 11 AUDIO
    TITLE "0:"
    INDEX 01 00:10:38
  TRACK 12 AUDIO
    TITLE "12:cjc026_08297"
    INDEX 01 00:10:73
  TRACK 13 AUDIO
    TITLE "0:"
    INDEX 01 00:13:37
  TRACK 14 AUDIO
    TITLE "10:cjc026_08298"
    INDEX 01 00:13:72
  TRACK 15 AUDIO
    TITLE "0:"
    INDEX 01 00:15:36
  TRACK 16 AUDIO
    TITLE "11:cjc026_08299"
    INDEX 01 00:15:73
  TRACK 17 AUDIO
    TITLE "0:"
    INDEX 01 00:17:53
  TRACK 18 AUDIO
    TITLE "12:cjc026_08300"
    INDEX 01 00:18:13
  TRACK 19 AUDIO
    TITLE "0:"
    INDEX 01 00:19:51
  TRACK 20 AUDIO
    TITLE "10:cjc026_08301"
    INDEX 01 00:20:12
  TRACK 21 AUDIO
    TITLE "0:"
    INDEX 01 00:21:39
  TRACK 22 AUDIO
    TITLE "11:cjc026_08302"
    INDEX 01 00:22:02
  TRACK 23 AUDIO
    TITLE "0:"
    INDEX 01 00:24:06
  TRACK 24 AUDIO
    TITLE "12:cjc026_08303"
    INDEX 01 00:24:41
  TRACK 25 AUDIO
    TITLE "0:"
    INDEX 01 00:25:69
  TRACK 26 AUDIO
    TITLE "10:cjc026_08304"
    INDEX 01 00:26:29
  TRACK 27 AUDIO
    TITLE "0:"
    INDEX 01 00:27:64
  TRACK 28 AUDIO
    TITLE "11:cjc026_08305"
    INDEX 01 00:28:24
  TRACK 29 AUDIO
    TITLE "0:"
    INDEX 01 00:29:71
  TRACK 30 AUDIO
    TITLE "12:cjc026_08306"
    INDEX 01 00:30:31
  TRACK 31 AUDIO
    TITLE "0:"
    INDEX 01 00:31:64
  TRACK 32 AUDIO
    TITLE "10:cjc026_08307"
    INDEX 01 00:32:27
  TRACK 33 AUDIO
    TITLE "0:"
    INDEX 01 00:33:44
  TRACK 34 AUDIO
    TITLE "11:cjc026_08308"
    INDEX 01 00:34:04
  TRACK 35 AUDIO
    TITLE "0:"
    INDEX 01 00:35:39
  TRACK 36 AUDIO
    TITLE "12:cjc026_08309"
    INDEX 01 00:36:00
  TRACK 37 AUDIO
    TITLE "0:"
    INDEX 01 00:37:16
  TRACK 38 AUDIO
    TITLE "10:cjc026_08310"
    INDEX 01 00:37:51
  TRACK 39 AUDIO
    TITLE "0:"
    INDEX 01 00:38:68
  TRACK 40 AUDIO
    TITLE "11:cjc026_08311"
    INDEX 01 00:39:31
  TRACK 41 AUDIO
    TITLE "0:"
    INDEX 01 00:40:69
  TRACK 42 AUDIO
    TITLE "12:cjc026_08312"
    INDEX 01 00:41:30
  TRACK 43 AUDIO
    TITLE "0:"
    INDEX 01 00:42:46
  TRACK 44 AUDIO
    TITLE "10:cjc026_08313"
    INDEX 01 00:43:06
  TRACK 45 AUDIO
    TITLE "0:"
    INDEX 01 00:44:37
  TRACK 46 AUDIO
    TITLE "11:cjc026_08314"
    INDEX 01 00:45:00
  TRACK 47 AUDIO
    TITLE "0:"
    INDEX 01 00:46:27
  TRACK 48 AUDIO
    TITLE "12:cjc026_08315"
    INDEX 01 00:46:62
  TRACK 49 AUDIO
    TITLE "0:"
    INDEX 01 00:48:15
  TRACK 50 AUDIO
    TITLE "10:cjc026_08316"
    INDEX 01 00:48:53
  TRACK 51 AUDIO
    TITLE "0:"
    INDEX 01 00:49:72
  TRACK 52 AUDIO
    TITLE "11:cjc026_08317"
    INDEX 01 00:50:32
  TRACK 53 AUDIO
    TITLE "0:"
    INDEX 01 00:51:63
  TRACK 54 AUDIO
    TITLE "12:cjc026_08318"
    INDEX 01 00:52:23
  TRACK 55 AUDIO
    TITLE "0:"
    INDEX 01 00:53:42
  TRACK 56 AUDIO
    TITLE "10:cjc026_08319"
    INDEX 01 00:54:02
  TRACK 57 AUDIO
    TITLE "0:"
    INDEX 01 00:55:19
  TRACK 58 AUDIO
    TITLE "11:cjc026_08320"
    INDEX 01 00:55:57
  TRACK 59 AUDIO
    TITLE "0:"
    INDEX 01 00:57:50
  TRACK 60 AUDIO
    TITLE "12:cjc026_08321"
    INDEX 01 00:58:10
  TRACK 61 AUDIO
    TITLE "0:"
    INDEX 01 00:59:24
  TRACK 62 AUDIO
    TITLE "10:cjc026_08322"
    INDEX 01 00:59:62
  TRACK 63 AUDIO
    TITLE "0:"
    INDEX 01 01:01:09
  TRACK 64 AUDIO
    TITLE "11:cjc026_08323"
    INDEX 01 01:01:47
  TRACK 65 AUDIO
    TITLE "0:"
    INDEX 01 01:03:08
  TRACK 66 AUDIO
    TITLE "12:cjc026_08324"
    INDEX 01 01:03:43
  TRACK 67 AUDIO
    TITLE "0:"
    INDEX 01 01:04:65
  TRACK 68 AUDIO
    TITLE "10:cjc026_08325"
    INDEX 01 01:05:28
  TRACK 69 AUDIO
    TITLE "0:"
    INDEX 01 01:06:39
  TRACK 70 AUDIO
    TITLE "11:cjc026_08326"
    INDEX 01 01:07:02
  TRACK 71 AUDIO
    TITLE "0:"
    INDEX 01 01:08:51
  TRACK 72 AUDIO
    TITLE "12:cjc026_08327"
    INDEX 01 01:09:14
  TRACK 73 AUDIO
    TITLE "0:"
    INDEX 01 01:10:25
